PathFileType	4	(X/Y/Z)	/Users/niels/Desktop/University/Third Semester/Perception and Action/Exam/Gymnastics Motion Tracking/Code for Gym Tracking/Analyzed Data/Webcam_Backflip/id8_4_baseline_Sports2D/id8_4_baseline_Sports2D_px_person00.trc
DataRate	CameraRate	NumFrames	NumMarkers	Units	OrigDataRate	OrigDataStartFrame	OrigNumFrames
29.81132075471698	29.81132075471698	7	22	m	29.81132075471698	59	159
Frame#	Time	Hip			RHip			RKnee			RAnkle			RBigToe			RSmallToe			RHeel			LHip			LKnee			LAnkle			LBigToe			LSmallToe			LHeel			Neck			Head			Nose			RShoulder			RElbow			RWrist			LShoulder			LElbow			LWrist		
		X1	Y1	Z1	X2	Y2	Z2	X3	Y3	Z3	X4	Y4	Z4	X5	Y5	Z5	X6	Y6	Z6	X7	Y7	Z7	X8	Y8	Z8	X9	Y9	Z9	X10	Y10	Z10	X11	Y11	Z11	X12	Y12	Z12	X13	Y13	Z13	X14	Y14	Z14	X15	Y15	Z15	X16	Y16	Z16	X17	Y17	Z17	X18	Y18	Z18	X19	Y19	Z19	X20	Y20	Z20	X21	Y21	Z21	X22	Y22	Z22
59	1.9791139240506328	0.8559904315168021	-0.4895812621376203	0.0	0.8493603192855388	-0.48960914851097265	0.0	0.8604975426559596	-0.5899415285509764	0.0	0.8383421749286564	-0.6987018816700471	0.0	0.8627173320782934	-0.7344947404839163	0.0	0.850404531002671	-0.7330813183295248	0.0	0.8274757668209922	-0.708296565122522	0.0	0.8672437080225102	-0.4879370292982127	0.0	0.9046131960659334	-0.5834967391239989	0.0	0.9307187165247411	-0.678291457089295	0.0	0.9493170955738948	-0.7023487837446003	0.0	0.9544824916352955	-0.6957417226626028	0.0	0.9262669693568314	-0.6915320381976534	0.0	0.8706228146136318	-0.3532248219510719	0.0	0.8840524120992851	-0.29332947028978473	0.0	0.892376605393842	-0.3245916666551758	0.0	0.8700376788744353	-0.3643481224109002	0.0	0.9008810824127572	-0.30992713215887907	0.0	0.9201282504529222	-0.2533592904940751	0.0	0.8637782995700788	-0.3642320901074479	0.0	0.8872790303245667	-0.3189245993172307	0.0	0.8813182012921312	-0.280586372478189	0.0
60	2.0126582278481013	0.8533666648796785	-0.49767571175872327	0.0	0.8460280370976065	-0.49757120445639524	0.0	0.853551385847311	-0.5978871217172946	0.0	0.83006274657764	-0.7072209315538516	0.0	0.8530454357951174	-0.7429770033850878	0.0	0.840665357157434	-0.7414776502670211	0.0	0.819380823777914	-0.7174648121942759	0.0	0.8651167435077912	-0.4959089343410623	0.0	0.9038387856134972	-0.5901268060640721	0.0	0.934739307222594	-0.6831625831305622	0.0	0.954079789268611	-0.7065099994409987	0.0	0.9594038946087731	-0.7002196631172903	0.0	0.93064543644128	-0.6971701559480298	0.0	0.8680026004512192	-0.36105571716898743	0.0	0.8817470425932962	-0.29927182946785935	0.0	0.8908718266708954	-0.3316675657748711	0.0	0.8672972294928616	-0.37293854041862623	0.0	0.8986323370010189	-0.3174541541110608	0.0	0.917476565550126	-0.2593187107890259	0.0	0.8608146512399679	-0.3723524172137188	0.0	0.8806897521022242	-0.326123798814463	0.0	0.8651464775151152	-0.2906892084070628	0.0
61	2.0462025316455694	0.850503152475258	-0.5094205757670075	0.0	0.8426826922203396	-0.5092133173362748	0.0	0.846818564598242	-0.6095448575305372	0.0	0.822246739047819	-0.7191096782354836	0.0	0.8440970443601388	-0.7536124521318682	0.0	0.8314394546794719	-0.7522228562120891	0.0	0.8119168642407529	-0.7303469931708051	0.0	0.8626106306675674	-0.5076735668566558	0.0	0.9030117362680794	-0.6003794419523079	0.0	0.9386712597239096	-0.691494986018892	0.0	0.9593983159095454	-0.7139925377890538	0.0	0.9645110697437262	-0.7081940841055054	0.0	0.9350792336909952	-0.7065377501519992	0.0	0.8652788066262106	-0.37312548780567395	0.0	0.8795496363435953	-0.30932985159373144	0.0	0.8894008282234933	-0.34251810462952237	0.0	0.8642443882127799	-0.3857226403968746	0.0	0.8968494638433584	-0.3296034499543011	0.0	0.9161104961590408	-0.2698935769917301	0.0	0.8578981360998571	-0.3844012512850312	0.0	0.8743233352233797	-0.33742896222761004	0.0	0.8520025582401015	-0.3054091119636622	0.0
62	2.079746835443038	0.8474925697048387	-0.5244879947781109	0.0	0.8393917713806318	-0.524239027176311	0.0	0.8403725668946641	-0.624683982725651	0.0	0.8150801245275553	-0.7338197575417069	0.0	0.835728364515566	-0.7658308524164706	0.0	0.8228092181485299	-0.7647441116383006	0.0	0.8052191486213667	-0.7461091908753419	0.0	0.8598680542725909	-0.5229088643995768	0.0	0.9020997450091052	-0.6140712676285399	0.0	0.9420494514015824	-0.7032097347556087	0.0	0.9647197244120607	-0.7243971649916588	0.0	0.9693340984009561	-0.7192852116077306	0.0	0.9390881437908977	-0.7193562077269429	0.0	0.8623926333701448	-0.38916195062930964	0.0	0.8772494355512152	-0.32358658619877034	0.0	0.8877579332283345	-0.35722169745422083	0.0	0.860832758238634	-0.40236761293940776	0.0	0.8955732200144203	-0.34603599969416354	0.0	0.9162894633909581	-0.2849890374864924	0.0	0.8550404202786357	-0.40006422220349347	0.0	0.8690255538811864	-0.35261502304658715	0.0	0.8440298680412424	-0.3239862810702965	0.0
63	2.113291139240506	0.8444290474564383	-0.5422800131472929	0.0	0.8361966945059606	-0.5420932187440443	0.0	0.8343148511614283	-0.642724543808606	0.0	0.8087300466250739	-0.7504939881827668	0.0	0.8277532217773449	-0.7790399316212123	0.0	0.8148922050968143	-0.7783918331338618	0.0	0.7993834772800438	-0.7635744895995052	0.0	0.8569992124784009	-0.5409956023676665	0.0	0.901086537647249	-0.6306179940614898	0.0	0.9443994308014211	-0.7178051921859381	0.0	0.9693586715562653	-0.7369610132487668	0.0	0.9732600760306568	-0.7327080673871613	0.0	0.9420997691335404	-0.7349028951563892	0.0	0.8592788396980121	-0.40844507952046505	0.0	0.8744216512475987	-0.34161374460006616	0.0	0.8857048790293661	-0.3754015666241444	0.0	0.8570693653953118	-0.4220744941482912	0.0	0.8949089552981823	-0.36618329913614434	0.0	0.9182297257748486	-0.30450424340964855	0.0	0.852279797752089	-0.4185741965434168	0.0	0.8661245764175264	-0.37105149396462633	0.0	0.8433032810209953	-0.3449507852561449	0.0
64	2.1468354430379746	0.8414432891877344	-0.5617600403340701	0.0	0.8331099757170912	-0.5617379736891899	0.0	0.8287067278663082	-0.6625679758817851	0.0	0.8033066612855021	-0.767980957157549	0.0	0.8201245757254345	-0.7925650281391421	0.0	0.8078167715759195	-0.7923914176300816	0.0	0.7944815353482343	-0.7813646221363879	0.0	0.8540939941077169	-0.5608230102817962	0.0	0.8998852019015908	-0.6489342728964986	0.0	0.9454253566993625	-0.7342869658898246	0.0	0.9727530923501635	-0.7507638983018823	0.0	0.9757460428267293	-0.7474227147724712	0.0	0.9436961866967941	-0.7519656965093214	0.0	0.8559750481651287	-0.4296606825741193	0.0	0.8708281961322117	-0.36226704494215545	0.0	0.8831466966890819	-0.3960011514193131	0.0	0.853033113342829	-0.44347581494725885	0.0	0.8949399352597697	-0.3892991042089296	0.0	0.9220257171912045	-0.32838496987148674	0.0	0.849823464166142	-0.4387048134476553	0.0	0.866920311436002	-0.39187894982657157	0.0	0.8515695833284387	-0.3665817886555315	0.0
65	2.180379746835443	0.8386830499343747	-0.581351532938975	0.0	0.8301557863280516	-0.5815009462287812	0.0	0.8235636205706026	-0.6825105986181091	0.0	0.7988185307050023	-0.7848429144356541	0.0	0.8131014717306747	-0.8055504586315972	0.0	0.801750985100379	-0.8057973230621126	0.0	0.790523252466762	-0.7980165450276322	0.0	0.851263031279404	-0.5806668426146696	0.0	0.8983228010098598	-0.6673976018367622	0.0	0.9450955049083415	-0.7511336110089069	0.0	0.9746730639019644	-0.7647000015869146	0.0	0.9765582951047053	-0.7621578740881507	0.0	0.9437982688245611	-0.7688737119614368	0.0	0.8527401353273353	-0.4509090898054622	0.0	0.8667684533556909	-0.38364943684591307	0.0	0.8803705838917764	-0.41726528234042215	0.0	0.8489147402783481	-0.4647215900927403	0.0	0.8955966351426252	-0.4145685377700909	0.0	0.9275056665926219	-0.35656644965425566	0.0	0.8481536372206315	-0.4588307847742603	0.0	0.8718923581440662	-0.41411486360176475	0.0	0.8689776337457874	-0.3876290016633519	0.0
